<?xml version="1.0" encoding="utf-8"?>
<!-- Generator: Adobe Illustrator 24.3.0, SVG Export Plug-In . SVG Version: 6.00 Build 0)  -->
<svg version="1.1" id="Capa_1" xmlns="http://www.w3.org/2000/svg" xmlns:xlink="http://www.w3.org/1999/xlink" x="0px" y="0px"
	 viewBox="0 0 1280 800" style="enable-background:new 0 0 1280 800;" xml:space="preserve">
<style type="text/css">
	.st0{fill:#9BC2CC;}
	.st1{fill:#D5A359;}
	.st2{fill:#E54D31;}
	.st3{fill:#305B7A;}
</style>
<g>
	<g>
		<path class="st0" d="M655.6,217.2c14.4-0.3,26.1,8.2,20.4,18c-1.3,1.9-3,3.4-5,4.6l-27.1,16.9c-1.1,0.7-2.2,1.4-3.4,2.1
			c-1.2,0.7-2.7,1-4.1,0.6c-2.7-0.6-3.5-2.2-1.6-3.7c1.3-1,2.6-1.9,4-2.8c8.9-5.6,17.9-11.2,26.9-16.7c2.3-1.4,3.9-3.1,4.1-5.2
			c0.3-3.2-1.5-5.7-5.6-7.5c-4.4-1.9-9.4-2.1-14-0.5c-1.9,0.7-3.7,1.5-5.4,2.6c-10.2,6.3-19.9,12.9-30.4,19c-0.8,0.5-1.6,1-2.4,1.7
			c-2.5,2.1-2.2,4.8,0.6,6.4c3.5,1.8,7.6,1.8,11-0.2c4.1-2.6,8.2-5.1,12.3-7.7c6.5-4.1,13-8.1,19.4-12.2c0.4-0.2,0.8-0.5,1.2-0.8
			c0.5-0.5,0.4-0.9-0.2-1.3c-0.6-0.4-1.4-0.5-2.1-0.1c-0.6,0.3-1.2,0.6-1.8,0.9c-8.8,5.8-18.5,11.1-27.4,16.9
			c-0.6,0.4-1.2,0.7-1.8,0.9c-1.3,0.5-2.8,0.5-4.1-0.2c-1.5-0.9-1.8-1.8-0.9-2.8c0.6-0.6,1.3-1.1,2.1-1.5c9.1-5.7,18.2-11.3,27.3-17
			c3.8-2.5,8.6-3,12.8-1.3c5.2,2.2,5.7,6.4,1.1,9.3c-4.3,2.7-8.7,5.4-13,8.1c-6.1,3.8-12.2,7.6-18.2,11.4c-2.3,1.5-4.8,2.6-7.5,3.2
			c-5.3,1.2-12.2,0.1-16-2.5c-5.8-4.2-5.6-9.5,1.1-13.8c3-2,6.3-3.7,9.3-5.6c7.5-4.6,14.9-9.2,22.3-13.9c2.1-1.3,4.2-2.5,6.5-3.5
			C649,217.6,652.3,217,655.6,217.2z"/>
		<path class="st1" d="M673.8,754c0,0.3,0,0.6,0,0.9c-0.1,1.3-0.3,1.5-2.3,1.7c-1.1,0.1-2.2,0.1-3.2,0.1c-1.8,0-3,0.5-3.6,1.6
			c-0.6,1-1.4,2.3-2.2,3.5c-0.6,0.9-0.4,1.6,0.8,2.3c1,0.6,1.9,1.3,2.8,1.9c0.9,0.7,0.7,1.1-0.1,1.7c-1.4,0.9-2.8,1.7-4.3,2.6
			c-0.6,0.3-1.3,0.3-1.8,0c-0.9-0.5-1.8-1-2.6-1.5c-1.5-1-3.4-1.2-5.1-0.7c-1.4,0.3-2.8,0.7-4.1,1c-2.1,0.5-3.2,1.5-3.3,3
			c-0.2,2.9-1,3.3-5.7,3.1c-0.5,0-1-0.1-1.5-0.1c-1.9-0.3-2.7-0.7-2.4-1.9c0.6-2.7-1.6-4-5.4-4.6c-0.6-0.1-1.1-0.3-1.6-0.4
			c-1.8-0.7-3.7-0.4-5.3,0.7c-0.7,0.5-1.5,1-2.3,1.4c-0.8,0.5-1.8,0.5-2.6,0l-3.8-2.3c-0.9-0.5-0.8-1.1-0.1-1.7
			c0.9-0.7,1.9-1.4,2.9-2.1c1.2-0.8,1.4-1.6,0.7-2.5s-1.5-2-2.1-3.1s-2-1.6-3.8-1.7c-1,0-2,0-3-0.1c-2-0.1-2.5-0.5-2.5-1.8
			c0-0.7,0-1.4,0-2c0-1.3,1.1-2,3-2c0.7,0,1.4,0.1,2.1,0.1c1.9,0,3.2-0.4,4-1.5c0.8-1.1,1.6-2.3,2.4-3.4c0.7-0.9,0.4-1.7-0.7-2.4
			c-0.8-0.5-1.7-1.1-2.4-1.6c-1.4-1-1.4-1.5,0-2.4c1-0.7,2.2-1.3,3.3-1.9c1-0.6,2.2-0.6,3.2,0c0.9,0.6,1.8,1.1,2.8,1.7
			c1,0.6,2.2,0.7,3.3,0.4c1.7-0.4,3.5-0.9,5.2-1.2c1.9-0.4,2.8-1.3,2.8-2.5c0-0.7,0-1.4,0-2c0-0.9,0.8-1.4,2.2-1.4
			c1.7,0,3.3,0,5,0.1c1.4,0,2.1,0.5,2.2,1.4c0,0.7,0.1,1.4,0.1,2c0,1.1,0.9,1.9,2.5,2.3c1.9,0.5,3.9,0.9,5.8,1.4
			c1.2,0.3,2.5,0.2,3.5-0.5c0.9-0.6,1.9-1.1,2.8-1.7c0.9-0.6,2-0.6,2.8,0c1.1,0.7,2.3,1.3,3.4,2.1c1.1,0.7,1.2,1.2,0,2.1
			c-0.8,0.6-1.6,1.1-2.4,1.6c-1.1,0.8-1.4,1.6-0.7,2.6c0.7,1,1.5,2.1,2.2,3.2c0.7,1.1,2.1,1.7,4.1,1.6
			C673.4,750.7,673.7,751.1,673.8,754z M624.8,753.7c-0.1,5.5,6.6,9.7,15.2,9.8c6.3,0.1,15.4-3.4,15.5-9.5c0-5.3-7-9.8-15.3-9.8
			C631.5,744.2,624.8,748.3,624.8,753.7L624.8,753.7z"/>
		<g>
			<path class="st0" d="M624.1,580.2c-3.3,0-6.5-0.1-9.8,0c-5.9,0.1-9.3,2.4-9.3,6.1c0,3.8,3.4,6.1,9.2,6.3c2.2,0.1,4.3,0,6.5,0
				c0.9-0.1,1.8,0.2,2.4,0.8c1.7,2.2,3.8,4,6.2,5.4c0.4,0.3,1,0.6,0.7,1s-1,0.4-1.5,0.4c-6.2-0.2-12.4,0.2-18.6-0.3
				c-7.4-0.5-17.3-6.9-16.9-11.9c0.2-2.1,0-4.2,1-6.2c2.8-5.4,10.3-9.1,19.4-9.2c6.8-0.1,13.6-0.1,20.4-0.1c10,0,17.5,4.1,20.5,10.2
				c0.8,1.8,0.4,3.7,0.3,5.5c0,0.8-0.8,1.2-2,1.4c-2.4,0.3-4.9,0.3-7.3,0c-1.6-0.2-2.3-0.9-2.5-1.8c-0.1-0.6-0.1-1.2-0.1-1.9
				c0-3.5-3.5-5.8-9.2-5.9C630.4,580.1,627.2,580.2,624.1,580.2L624.1,580.2z"/>
			<path class="st0" d="M660.2,572.7c3.3,0.1,6.7,0,10,0.3c3,0.2,5.9,1,8.5,2.4l0.2,0.1c7.7,3.9,9.3,9,7.5,14.7
				c-1.5,4.7-8.8,8.9-16.5,9.7c-3,0.3-6.1,0.2-9.2,0.2c-4.5,0-9.1,0-13.6,0c-4.1,0.1-8.2-0.7-12-2.2c-7.4-3-9.9-7.5-9.3-12.8
				c0.2-1.8,0.8-2.1,3.7-2.1c1.5,0,3,0,4.4,0.1c2.6,0.1,3,0.3,3.3,2c0.1,0.6,0.2,1.2,0.2,1.8c0.4,3.4,3.8,5.6,9.3,5.7
				c6.3,0.1,12.6,0,19,0c5.9,0,9.6-2.8,9.7-6.1c0.1-3.8-3.8-6.4-9.8-6.5c-2,0-4,0-5.9,0c-1.1,0.2-2.1-0.2-2.9-1
				c-1.5-2-3.4-3.7-5.7-4.9c-0.4-0.2-0.9-0.6-0.7-1s1-0.6,1.7-0.6C654.8,572.6,657.5,572.7,660.2,572.7z"/>
		</g>
		<g>
			<path class="st2" d="M660.5,400.9c-0.2,0.5-0.5,1-0.9,1.3l-28.1,30.7c-0.3,0.3-0.6,0.7-0.9,1c-0.4,0.5-1.1,0.7-1.7,0.4
				c-2.2-0.7-4.4-1.4-6.6-2.1c-1.4-0.4-1.3-1.2-0.7-1.9c0.8-1,1.7-1.9,2.6-2.9c5.5-6,11-12,16.5-18c2.6-2.9,5.2-5.8,8.2-8.6
				c0.7-0.7,1.3-1.5,1.9-2.3c0.7-1,1.2-1.1,2.8-0.7c1.9,0.5,3.7,1.1,5.5,1.8C659.9,399.9,660.6,400.3,660.5,400.9z"/>
			<path class="st2" d="M605.9,430c-0.5-0.1-1-0.3-1.4-0.6c-2.1-1.2-4.2-2.4-6.1-3.8c-4-2.8-8.3-5.3-12.5-7.9
				c-2.1-1.3-2.1-1.6-0.1-2.9c5.9-3.8,11.8-7.6,17.8-11.4c1.8-1.2,2.5-1.2,4.5-0.1c1.1,0.7,2.2,1.4,3.3,2.1c1.6,1.2,1.7,1.5-0.1,2.7
				c-2.6,1.8-5.4,3.4-8.1,5.1c-0.9,0.6-1.9,1.1-2.7,1.7c-1.3,1-1.3,1.4,0.2,2.4c3.4,2.2,6.7,4.3,10.1,6.5c2.6,1.6,2.6,1.6-0.1,3.3
				c-1.2,0.7-2.3,1.5-3.5,2.3C606.7,429.8,606.3,430,605.9,430z"/>
			<path class="st2" d="M674.3,430.2c-0.4-0.2-0.8-0.4-1.1-0.6c-1.4-0.9-2.8-1.8-4.1-2.6c-1.6-1.1-1.6-1.6,0.1-2.7
				c3-1.9,6.1-3.8,9.2-5.8l1.1-0.6c2.1-1.3,2.1-1.5,0.1-2.9c-3-2-6-3.9-9-5.9c-0.5-0.3-1-0.6-1.5-0.9c-1.1-0.9-1.2-1.4,0-2.3
				s2.4-1.7,3.6-2.4c1.5-0.9,2.2-0.9,3.8,0c1.2,0.7,2.5,1.4,3.6,2.2c4.9,3.2,9.7,6.3,14.6,9.5c1.5,1,1.6,1.3,0,2.3
				c-2.2,1.5-4.6,2.9-6.8,4.4l-11.7,7.6C675.6,429.8,675,430.1,674.3,430.2z"/>
		</g>
		<g>
			<path class="st1" d="M633.2,42.9h27.2c8.3,0,14.6,2.1,18.1,6.9c5.1,7-0.9,16.6-16,17.3c-0.4,0-0.8,0-1.2,0
				c-2.8,0.1-3,0.2-3.5,1.8c-1,3.3-3.8,5.9-8.1,7.9c-2.8,1.3-5.9,2-9,2.1c-7.8,0-15.6,0.3-23.4-0.1c-10.5-0.5-17.4-5.7-17.5-11.9
				c0-6.4,0.2-12.7-0.1-19.1c0-1.1,0.2-2.1,0.4-3.1c0.2-1,1.1-1.6,2.7-1.6c1-0.1,2-0.1,2.9-0.1L633.2,42.9L633.2,42.9z M629.2,47.8
				L629.2,47.8h-18.6c-2.7,0-2.9,0.1-2.9,1.8c0,0.9,0,1.8,0,2.8c0,4.8,0,9.6,0,14.5c0.1,4.2,4.8,7.1,11.4,7.1c6.7,0,13.4,0,20.1,0
				c2.7,0.1,5.3-0.7,7.6-2.1c2.5-1.5,3.5-3.3,3.5-5.5c-0.1-5.6,0-11.1-0.1-16.7c0-1.8-0.2-1.9-3-1.9L629.2,47.8z M658,55.1L658,55.1
				c-0.1,1.8-0.1,3.6-0.1,5.4c0,1.5,0.4,1.7,2.8,1.6c1.8,0,3.7-0.2,5.4-0.8c4.6-1.6,7-4.7,5.9-7.8c-1.1-3.1-5.6-5.5-10.5-5.6
				c-3.2,0-3.5,0.1-3.6,2.1C658,51.8,658,53.4,658,55.1z"/>
			<path class="st1" d="M632,39.1c0.1-0.9,0.6-1.8,1.3-2.4c1.1-1.2,1.1-2.2-0.3-3.4c-2.8-2.5-2.5-4.1,0.8-6.3
				c0.8-0.5,1.6-1.1,2.5-1.6c0.4-0.3,1.1-0.3,1.4,0.2c0,0.1,0.1,0.1,0.1,0.2c0.2,0.4,0.1,0.9-0.2,1.3c-0.4,0.6-0.9,1.2-1.5,1.8
				c-0.9,0.8-0.9,1.6,0.2,2.3c0.5,0.4,1,0.8,1.4,1.2c1.6,1.6,1.6,3.1-0.2,4.6c-1.1,0.9-2.3,1.7-3.5,2.5c-0.3,0.3-0.8,0.4-1.3,0.3
				C632,39.8,632.1,39.3,632,39.1z"/>
			<path class="st1" d="M626.2,24.9c1,1.5,0.3,2.6-0.6,3.5c-1.1,1.2-1.1,2.1,0.3,3.2c0.8,0.6,1.4,1.4,1.8,2.3c0.4,1.1,0.1,2.4-0.9,3
				c-1,0.8-2.2,1.6-3.4,2.3c-0.4,0.3-0.8,0.4-1.3,0.3c-0.5,0-0.8-0.4-0.8-0.9c0.1-0.8,0.5-1.4,1.1-1.9c1.4-1.3,1.2-2.3-0.4-3.5
				c-2.6-1.9-2.4-4.1,0.4-5.9C623.6,26.5,624.8,25.8,626.2,24.9z"/>
		</g>
		<g>
			<path class="st3" d="M640.1,166.3c-1.7-0.1-2.9-1.9-2.9-4.4c0.1-2.7,1.1-4.6,2.5-4.6c1.9,0,3.2,2,3.2,4.6
				C642.8,164.1,641.4,166.3,640.1,166.3z"/>
			<path class="st3" d="M639.8,193.4c-1.5-0.1-2.7-2.2-2.7-4.7c0-2.5,1.2-4.3,2.9-4.2c1.7,0.1,2.8,2.1,2.8,4.5
				C642.7,191.2,641.2,193.5,639.8,193.4z"/>
			<path class="st3" d="M637.5,107.1c0-2.7,0.8-4.3,2.3-4.4c1.5-0.1,2.8,1.9,2.8,4.8c0,2.4-0.9,3.9-2.4,4
				C638.5,111.5,637.5,110,637.5,107.1z"/>
			<path class="st3" d="M640,125.1c-1.5,0-2.5-1.6-2.6-4.1s1.2-4.8,2.6-4.8s2.6,2.3,2.6,4.6C642.7,123.4,641.6,125.1,640,125.1z"/>
			<path class="st3" d="M637.4,175c0-2.3,1.3-4.1,2.8-4.1c1.5,0.1,2.5,1.8,2.4,4.3c0,2.3-1.2,4.3-2.5,4.4
				C638.6,179.6,637.4,177.5,637.4,175z"/>
			<path class="st3" d="M640.2,130c1.4,0.1,2.5,2.2,2.4,4.7c-0.1,2.6-1.2,4.1-2.8,4s-2.4-1.9-2.3-4.7
				C637.6,131.8,638.9,129.9,640.2,130z"/>
			<path class="st3" d="M642.6,148c0,2.3-1.4,4.4-2.9,4.3s-2.3-1.7-2.3-4.1c0-2.4,1-4.5,2.3-4.5C641.3,143.6,642.7,145.6,642.6,148z
				"/>
		</g>
		<g>
			<path class="st3" d="M640.1,346.7c-1.7-0.1-2.9-1.9-2.9-4.4c0.1-2.7,1.1-4.6,2.5-4.6c1.9,0,3.2,2,3.2,4.6
				C642.8,344.5,641.4,346.8,640.1,346.7z"/>
			<path class="st3" d="M639.8,373.9c-1.5-0.1-2.7-2.2-2.7-4.7c0-2.5,1.2-4.3,2.9-4.2s2.8,2.1,2.8,4.5
				C642.7,371.7,641.2,373.9,639.8,373.9z"/>
			<path class="st3" d="M637.5,287.6c0-2.7,0.8-4.3,2.3-4.4c1.5-0.1,2.8,1.9,2.8,4.8c0,2.4-0.9,3.9-2.4,4
				C638.5,292,637.5,290.4,637.5,287.6z"/>
			<path class="st3" d="M640,305.6c-1.5,0-2.5-1.6-2.6-4.1s1.2-4.8,2.6-4.8s2.6,2.3,2.6,4.6C642.7,303.8,641.6,305.6,640,305.6z"/>
			<path class="st3" d="M637.4,355.4c0-2.3,1.3-4.1,2.8-4.1c1.5,0.1,2.5,1.8,2.4,4.3c0,2.3-1.2,4.3-2.5,4.4
				C638.6,360,637.4,357.9,637.4,355.4z"/>
			<path class="st3" d="M640.2,310.5c1.4,0.1,2.5,2.2,2.4,4.7c-0.1,2.6-1.2,4.1-2.8,4c-1.6-0.1-2.4-1.9-2.3-4.7
				C637.6,312.2,638.9,310.4,640.2,310.5z"/>
			<path class="st3" d="M642.6,328.4c0,2.3-1.4,4.4-2.9,4.3s-2.3-1.7-2.3-4.1c0-2.4,1-4.5,2.3-4.5
				C641.3,324.1,642.7,326.1,642.6,328.4z"/>
		</g>
		<g>
			<path class="st3" d="M640.1,521.7c-1.7-0.1-2.9-1.9-2.9-4.4c0.1-2.7,1.1-4.6,2.5-4.6c1.9,0,3.2,2,3.2,4.6
				C642.8,519.5,641.4,521.8,640.1,521.7z"/>
			<path class="st3" d="M639.8,548.9c-1.5-0.1-2.7-2.2-2.7-4.7c0-2.5,1.2-4.3,2.9-4.2c1.7,0.1,2.8,2.1,2.8,4.5
				C642.7,546.7,641.2,549,639.8,548.9z"/>
			<path class="st3" d="M637.5,462.6c0-2.7,0.8-4.3,2.3-4.4c1.5-0.1,2.8,1.9,2.8,4.8c0,2.4-0.9,3.9-2.4,4
				C638.5,467,637.5,465.4,637.5,462.6z"/>
			<path class="st3" d="M640,480.6c-1.5,0-2.5-1.6-2.6-4.1s1.2-4.8,2.6-4.8s2.6,2.3,2.6,4.6C642.7,478.8,641.6,480.6,640,480.6z"/>
			<path class="st3" d="M637.4,530.4c0-2.3,1.3-4.1,2.8-4.1c1.5,0.1,2.5,1.8,2.4,4.3c0,2.3-1.2,4.3-2.5,4.4
				C638.6,535,637.4,532.9,637.4,530.4z"/>
			<path class="st3" d="M640.2,485.5c1.4,0.1,2.5,2.2,2.4,4.7c-0.1,2.6-1.2,4.1-2.8,4c-1.6-0.1-2.4-1.9-2.3-4.7
				C637.6,487.2,638.9,485.4,640.2,485.5z"/>
			<path class="st3" d="M642.6,503.4c0,2.3-1.4,4.4-2.9,4.3s-2.3-1.7-2.3-4.1c0-2.4,1-4.5,2.3-4.5
				C641.3,499.1,642.7,501.1,642.6,503.4z"/>
		</g>
		<g>
			<path class="st3" d="M640.1,687.5c-1.7-0.1-2.9-1.9-2.9-4.4c0.1-2.7,1.1-4.6,2.5-4.6c1.9,0,3.2,2,3.2,4.6
				C642.8,685.3,641.4,687.5,640.1,687.5z"/>
			<path class="st3" d="M639.8,714.7c-1.5-0.1-2.7-2.2-2.7-4.7c0-2.5,1.2-4.3,2.9-4.2s2.8,2.1,2.8,4.5
				C642.7,712.5,641.2,714.7,639.8,714.7z"/>
			<path class="st3" d="M637.5,628.4c0-2.7,0.8-4.3,2.3-4.4c1.5-0.1,2.8,1.9,2.8,4.8c0,2.4-0.9,3.9-2.4,4
				C638.5,632.8,637.5,631.2,637.5,628.4z"/>
			<path class="st3" d="M640,646.4c-1.5,0-2.5-1.6-2.6-4.1s1.2-4.8,2.6-4.8s2.6,2.3,2.6,4.6C642.7,644.6,641.6,646.3,640,646.4z"/>
			<path class="st3" d="M637.4,696.2c0-2.3,1.3-4.1,2.8-4.1c1.5,0.1,2.5,1.8,2.4,4.3c0,2.3-1.2,4.3-2.5,4.4
				C638.6,700.8,637.4,698.7,637.4,696.2z"/>
			<path class="st3" d="M640.2,651.3c1.4,0.1,2.5,2.2,2.4,4.7c-0.1,2.6-1.2,4.1-2.8,4s-2.4-1.9-2.3-4.7
				C637.6,653,638.9,651.2,640.2,651.3z"/>
			<path class="st3" d="M642.6,669.2c0,2.3-1.4,4.4-2.9,4.3c-1.5-0.1-2.3-1.7-2.3-4.1c0-2.4,1-4.5,2.3-4.5
				C641.3,664.9,642.7,666.9,642.6,669.2z"/>
		</g>
	</g>
	<g>
		<path class="st0" d="M118.8,217.2c14.4-0.3,26.1,8.2,20.4,18c-1.3,1.9-3,3.4-5,4.6l-27.1,16.9c-1.1,0.7-2.2,1.4-3.4,2.1
			c-1.2,0.7-2.7,1-4.1,0.6c-2.7-0.6-3.5-2.2-1.6-3.7c1.3-1,2.6-1.9,4-2.8c8.9-5.6,17.9-11.2,26.9-16.7c2.3-1.4,3.9-3.1,4.1-5.2
			c0.3-3.2-1.5-5.7-5.6-7.5c-4.4-1.9-9.4-2.1-14-0.5c-1.9,0.7-3.7,1.5-5.4,2.6c-10.2,6.3-19.9,12.9-30.4,19c-0.8,0.5-1.6,1-2.4,1.7
			c-2.5,2.1-2.2,4.8,0.6,6.4c3.5,1.8,7.6,1.8,11-0.2c4.1-2.6,8.2-5.1,12.3-7.7c6.5-4.1,13-8.1,19.4-12.2c0.4-0.2,0.8-0.5,1.2-0.8
			c0.5-0.5,0.4-0.9-0.2-1.3c-0.6-0.4-1.4-0.5-2.1-0.1c-0.6,0.3-1.2,0.6-1.8,0.9c-8.8,5.8-18.5,11.1-27.4,16.9
			c-0.6,0.4-1.2,0.7-1.8,0.9c-1.3,0.5-2.8,0.5-4.1-0.2c-1.5-0.9-1.8-1.8-0.9-2.8c0.6-0.6,1.3-1.1,2.1-1.5c9.1-5.7,18.2-11.3,27.3-17
			c3.8-2.5,8.6-3,12.8-1.3c5.2,2.2,5.7,6.4,1.1,9.3c-4.3,2.7-8.6,5.4-13,8.1c-6.1,3.8-12.2,7.6-18.2,11.4c-2.3,1.5-4.8,2.6-7.5,3.2
			c-5.3,1.2-12.2,0.1-16-2.5c-5.8-4.2-5.6-9.5,1.1-13.8c3-2,6.3-3.7,9.4-5.6c7.5-4.6,14.9-9.2,22.3-13.9c2.1-1.3,4.2-2.5,6.5-3.5
			C112.2,217.6,115.5,217,118.8,217.2z"/>
		<path class="st1" d="M137,754c0,0.3,0,0.6,0,0.9c-0.1,1.3-0.3,1.5-2.3,1.7c-1.1,0.1-2.2,0.1-3.2,0.1c-1.8,0-3,0.5-3.6,1.6
			c-0.6,1-1.4,2.3-2.2,3.5c-0.6,0.9-0.4,1.6,0.8,2.3c1,0.6,1.9,1.3,2.8,1.9c0.9,0.7,0.7,1.1-0.1,1.7c-1.4,0.9-2.8,1.7-4.3,2.6
			c-0.6,0.3-1.3,0.3-1.8,0c-0.9-0.5-1.8-1-2.6-1.5c-1.5-1-3.4-1.2-5.1-0.7c-1.4,0.3-2.8,0.7-4.1,1c-2.1,0.5-3.2,1.5-3.3,3
			c-0.2,2.9-1,3.3-5.7,3.1c-0.5,0-1-0.1-1.5-0.1c-1.9-0.3-2.7-0.7-2.4-1.9c0.6-2.7-1.6-4-5.4-4.6c-0.6-0.1-1.1-0.3-1.6-0.4
			c-1.8-0.7-3.7-0.4-5.3,0.7c-0.7,0.5-1.5,1-2.3,1.4c-0.8,0.5-1.8,0.5-2.6,0l-3.8-2.3c-0.9-0.5-0.8-1.1-0.1-1.7
			c0.9-0.7,1.9-1.4,2.9-2.1c1.2-0.8,1.4-1.6,0.7-2.5s-1.5-2-2.1-3.1s-2-1.6-3.8-1.7c-1,0-2,0-3-0.1c-2-0.1-2.5-0.5-2.5-1.8
			c0-0.7,0-1.4,0-2c0-1.3,1.1-2,3-2c0.7,0,1.4,0.1,2.1,0.1c1.9,0,3.2-0.4,4-1.5c0.8-1.1,1.6-2.3,2.4-3.4c0.7-0.9,0.4-1.7-0.7-2.4
			c-0.8-0.5-1.7-1.1-2.4-1.6c-1.4-1-1.4-1.5,0-2.4c1-0.7,2.2-1.3,3.3-1.9c1-0.6,2.2-0.6,3.2,0c0.9,0.6,1.8,1.1,2.8,1.7
			c1,0.6,2.2,0.7,3.3,0.4c1.7-0.4,3.5-0.9,5.2-1.2c1.9-0.4,2.8-1.3,2.8-2.5c0-0.7,0-1.4,0-2c0-0.9,0.8-1.4,2.2-1.4
			c1.7,0,3.3,0,5,0.1c1.4,0,2.1,0.5,2.2,1.4c0,0.7,0.1,1.4,0.1,2c0,1.1,0.9,1.9,2.5,2.3c1.9,0.5,3.9,0.9,5.8,1.4
			c1.2,0.3,2.5,0.2,3.5-0.5c0.9-0.6,1.9-1.1,2.8-1.7c0.9-0.6,2-0.6,2.8,0c1.1,0.7,2.3,1.3,3.4,2.1c1.1,0.7,1.2,1.2,0,2.1
			c-0.8,0.6-1.6,1.1-2.4,1.6c-1.1,0.8-1.4,1.6-0.7,2.6c0.7,1,1.5,2.1,2.2,3.2c0.7,1.1,2.1,1.7,4.1,1.6
			C136.6,750.7,136.9,751.1,137,754z M88,753.7c-0.1,5.5,6.6,9.7,15.2,9.8c6.3,0.1,15.4-3.4,15.5-9.5c0-5.3-7-9.8-15.3-9.8
			C94.7,744.2,88,748.3,88,753.7L88,753.7z"/>
		<g>
			<path class="st0" d="M87.3,580.2c-3.3,0-6.5-0.1-9.8,0c-5.9,0.1-9.3,2.4-9.3,6.1c0,3.8,3.4,6.1,9.2,6.3c2.2,0.1,4.3,0,6.5,0
				c0.9-0.1,1.8,0.2,2.4,0.8c1.7,2.2,3.8,4,6.2,5.4c0.4,0.3,1,0.6,0.7,1s-1,0.4-1.5,0.4c-6.2-0.2-12.4,0.2-18.6-0.3
				c-7.4-0.5-17.3-6.9-16.9-11.9c0.2-2.1,0-4.2,1-6.2c2.8-5.4,10.3-9.1,19.4-9.2c6.8-0.1,13.6-0.1,20.4-0.1c10,0,17.5,4.1,20.5,10.2
				c0.8,1.8,0.4,3.7,0.3,5.5c0,0.8-0.8,1.2-2,1.4c-2.4,0.3-4.9,0.3-7.3,0c-1.6-0.2-2.3-0.9-2.5-1.8c-0.1-0.6-0.1-1.2-0.1-1.9
				c0-3.5-3.5-5.8-9.2-5.9C93.6,580.1,90.4,580.2,87.3,580.2L87.3,580.2z"/>
			<path class="st0" d="M123.4,572.7c3.3,0.1,6.7,0,10,0.3c3,0.2,5.9,1,8.5,2.4l0.2,0.1c7.7,3.9,9.3,9,7.5,14.7
				c-1.5,4.7-8.8,8.9-16.5,9.7c-3,0.3-6.1,0.2-9.2,0.2c-4.5,0-9.1,0-13.6,0c-4.1,0.1-8.2-0.7-12-2.2c-7.4-3-9.9-7.5-9.3-12.8
				c0.2-1.8,0.8-2.1,3.7-2.1c1.5,0,3,0,4.4,0.1c2.6,0.1,3,0.3,3.3,2c0.1,0.6,0.2,1.2,0.2,1.8c0.4,3.4,3.8,5.6,9.3,5.7
				c6.3,0.1,12.6,0,19,0c5.9,0,9.6-2.8,9.7-6.1c0.1-3.8-3.8-6.4-9.8-6.5c-2,0-4,0-5.9,0c-1.1,0.2-2.1-0.2-2.9-1
				c-1.5-2-3.4-3.7-5.7-4.9c-0.4-0.2-0.9-0.6-0.7-1s1-0.6,1.7-0.6C118,572.6,120.7,572.7,123.4,572.7z"/>
		</g>
		<g>
			<path class="st2" d="M123.7,400.9c-0.2,0.5-0.5,1-0.9,1.3l-28.1,30.7c-0.3,0.3-0.6,0.7-0.9,1c-0.4,0.5-1.1,0.7-1.7,0.4
				c-2.2-0.7-4.4-1.4-6.6-2.1c-1.4-0.4-1.3-1.2-0.7-1.9c0.8-1,1.7-1.9,2.6-2.9c5.5-6,11-12,16.5-18c2.6-2.9,5.2-5.8,8.2-8.6
				c0.7-0.7,1.3-1.5,1.9-2.3c0.7-1,1.2-1.1,2.8-0.7c1.9,0.5,3.7,1.1,5.5,1.8C123.1,399.9,123.8,400.3,123.7,400.9z"/>
			<path class="st2" d="M69.1,430c-0.5-0.1-1-0.3-1.4-0.6c-2.1-1.2-4.2-2.4-6.1-3.8c-4-2.8-8.3-5.3-12.5-7.9
				c-2.1-1.3-2.1-1.6-0.1-2.9c5.9-3.8,11.8-7.6,17.8-11.4c1.8-1.2,2.5-1.2,4.5-0.1c1.1,0.7,2.2,1.4,3.3,2.1c1.6,1.2,1.7,1.5-0.1,2.7
				c-2.6,1.8-5.4,3.4-8.1,5.1c-0.9,0.6-1.9,1.1-2.7,1.7c-1.3,1-1.3,1.4,0.2,2.4c3.4,2.2,6.7,4.3,10.1,6.5c2.6,1.6,2.6,1.6-0.1,3.3
				c-1.2,0.7-2.3,1.5-3.5,2.3C69.9,429.8,69.5,430,69.1,430z"/>
			<path class="st2" d="M137.5,430.2c-0.4-0.2-0.8-0.4-1.1-0.6c-1.4-0.9-2.8-1.8-4.1-2.6c-1.6-1.1-1.6-1.6,0.1-2.7
				c3-1.9,6.1-3.8,9.2-5.8l1.1-0.6c2.1-1.3,2.1-1.5,0.1-2.9c-3-2-6-3.9-9-5.9c-0.5-0.3-1-0.6-1.5-0.9c-1.1-0.9-1.2-1.4,0-2.3
				s2.4-1.7,3.6-2.4c1.5-0.9,2.2-0.9,3.8,0c1.2,0.7,2.5,1.4,3.6,2.2c4.9,3.2,9.7,6.3,14.6,9.5c1.5,1,1.6,1.3,0,2.3
				c-2.2,1.5-4.6,2.9-6.8,4.4l-11.7,7.6C138.8,429.8,138.2,430.1,137.5,430.2z"/>
		</g>
		<g>
			<path class="st1" d="M96.4,42.9h27.2c8.3,0,14.6,2.1,18.1,6.9c5.1,7-0.9,16.6-16,17.3c-0.4,0-0.8,0-1.2,0c-2.8,0.1-3,0.2-3.5,1.8
				c-1,3.3-3.8,5.9-8.1,7.9c-2.8,1.3-5.9,2-9,2.1c-7.8,0-15.6,0.3-23.4-0.1C70,78.4,63.1,73.1,63,66.9c-0.1-6.4,0.2-12.7-0.1-19.1
				c0-1.1,0.2-2.1,0.4-3.1c0.1-1,1-1.6,2.7-1.6c1-0.1,2-0.1,2.9-0.1L96.4,42.9L96.4,42.9z M92.4,47.8L92.4,47.8H73.8
				c-2.7,0-2.9,0.1-2.9,1.8c0,0.9,0,1.8,0,2.8c0,4.8-0.1,9.6,0.1,14.5c0.1,4.2,4.8,7.1,11.4,7.1s13.4,0,20.1,0
				c2.7,0.1,5.3-0.7,7.6-2.1c2.5-1.5,3.5-3.3,3.5-5.5c-0.1-5.6,0-11.1-0.1-16.7c0-1.8-0.1-1.9-3-1.9L92.4,47.8z M121.2,55.1
				L121.2,55.1c-0.1,1.8-0.1,3.6-0.1,5.4c0,1.5,0.4,1.7,2.8,1.6c1.8,0,3.7-0.2,5.4-0.8c4.6-1.6,7-4.7,5.9-7.8s-5.6-5.5-10.5-5.6
				c-3.2,0-3.5,0.1-3.6,2.1C121.2,51.8,121.2,53.4,121.2,55.1z"/>
			<path class="st1" d="M95.2,39.1c0.1-0.9,0.6-1.8,1.3-2.4c1.1-1.2,1.1-2.2-0.3-3.4c-2.8-2.5-2.5-4.1,0.8-6.3
				c0.8-0.5,1.6-1.1,2.5-1.6c0.4-0.3,1.1-0.3,1.4,0.2c0,0.1,0.1,0.1,0.1,0.2c0.2,0.4,0.1,0.9-0.2,1.3c-0.4,0.6-0.9,1.2-1.5,1.8
				c-0.9,0.8-0.9,1.6,0.2,2.3c0.5,0.4,1,0.8,1.4,1.2c1.6,1.6,1.6,3.1-0.2,4.6c-1.1,0.9-2.3,1.7-3.5,2.5c-0.3,0.3-0.8,0.4-1.3,0.3
				C95.2,39.8,95.3,39.3,95.2,39.1z"/>
			<path class="st1" d="M89.4,24.9c1,1.5,0.3,2.6-0.6,3.5c-1.1,1.2-1.1,2.1,0.3,3.2c0.8,0.6,1.4,1.4,1.8,2.3c0.4,1.1,0.1,2.4-0.9,3
				c-1,0.8-2.2,1.6-3.4,2.3c-0.4,0.3-0.8,0.4-1.3,0.3c-0.5,0-0.8-0.4-0.8-0.9c0.1-0.8,0.5-1.4,1.1-1.9c1.4-1.3,1.2-2.3-0.4-3.5
				c-2.6-1.9-2.4-4.1,0.4-5.9C86.8,26.5,88,25.8,89.4,24.9z"/>
		</g>
		<g>
			<path class="st3" d="M103.3,166.3c-1.7-0.1-2.9-1.9-2.9-4.4c0.1-2.7,1.1-4.6,2.5-4.6c1.9,0,3.2,2,3.2,4.6
				C106,164.1,104.6,166.3,103.3,166.3z"/>
			<path class="st3" d="M103,193.4c-1.5-0.1-2.7-2.2-2.7-4.7c0-2.5,1.2-4.3,2.9-4.2c1.7,0.1,2.8,2.1,2.8,4.5
				C106,191.2,104.4,193.5,103,193.4z"/>
			<path class="st3" d="M100.7,107.1c0-2.7,0.8-4.3,2.3-4.4c1.5-0.1,2.8,1.9,2.8,4.8c0,2.4-0.9,3.9-2.4,4
				C101.7,111.5,100.7,110,100.7,107.1z"/>
			<path class="st3" d="M103.2,125.1c-1.5,0-2.5-1.6-2.6-4.1s1.2-4.8,2.6-4.8c1.4,0.1,2.6,2.3,2.6,4.6
				C105.9,123.4,104.9,125.1,103.2,125.1z"/>
			<path class="st3" d="M100.6,175c0-2.3,1.3-4.1,2.8-4.1c1.5,0.1,2.5,1.8,2.4,4.3c0,2.3-1.2,4.3-2.5,4.4
				C101.8,179.6,100.6,177.5,100.6,175z"/>
			<path class="st3" d="M103.4,130c1.4,0.1,2.5,2.2,2.4,4.7c-0.1,2.6-1.2,4.1-2.8,4c-1.6-0.1-2.4-1.9-2.3-4.7
				C100.8,131.8,102.1,129.9,103.4,130z"/>
			<path class="st3" d="M105.8,148c0,2.3-1.4,4.4-2.9,4.3c-1.5-0.1-2.3-1.7-2.3-4.1c0-2.4,1-4.5,2.3-4.5
				C104.5,143.6,105.9,145.6,105.8,148z"/>
		</g>
		<g>
			<path class="st3" d="M103.3,346.7c-1.7-0.1-2.9-1.9-2.9-4.4c0.1-2.7,1.1-4.6,2.5-4.6c1.9,0,3.2,2,3.2,4.6
				C106,344.5,104.6,346.8,103.3,346.7z"/>
			<path class="st3" d="M103,373.9c-1.5-0.1-2.7-2.2-2.7-4.7c0-2.5,1.2-4.3,2.9-4.2c1.7,0.1,2.8,2.1,2.8,4.5
				C106,371.7,104.4,373.9,103,373.9z"/>
			<path class="st3" d="M100.7,287.6c0-2.7,0.8-4.3,2.3-4.4c1.5-0.1,2.8,1.9,2.8,4.8c0,2.4-0.9,3.9-2.4,4
				C101.7,292,100.7,290.4,100.7,287.6z"/>
			<path class="st3" d="M103.2,305.6c-1.5,0-2.5-1.6-2.6-4.1s1.2-4.8,2.6-4.8c1.4,0.1,2.6,2.3,2.6,4.6
				C105.9,303.8,104.9,305.6,103.2,305.6z"/>
			<path class="st3" d="M100.6,355.4c0-2.3,1.3-4.1,2.8-4.1c1.5,0.1,2.5,1.8,2.4,4.3c0,2.3-1.2,4.3-2.5,4.4
				C101.8,360,100.6,357.9,100.6,355.4z"/>
			<path class="st3" d="M103.4,310.5c1.4,0.1,2.5,2.2,2.4,4.7c-0.1,2.6-1.2,4.1-2.8,4c-1.6-0.1-2.4-1.9-2.3-4.7
				C100.8,312.2,102.1,310.4,103.4,310.5z"/>
			<path class="st3" d="M105.8,328.4c0,2.3-1.4,4.4-2.9,4.3c-1.5-0.1-2.3-1.7-2.3-4.1c0-2.4,1-4.5,2.3-4.5
				C104.5,324.1,105.9,326.1,105.8,328.4z"/>
		</g>
		<g>
			<path class="st3" d="M103.3,521.7c-1.7-0.1-2.9-1.9-2.9-4.4c0.1-2.7,1.1-4.6,2.5-4.6c1.9,0,3.2,2,3.2,4.6
				C106,519.5,104.6,521.8,103.3,521.7z"/>
			<path class="st3" d="M103,548.9c-1.5-0.1-2.7-2.2-2.7-4.7c0-2.5,1.2-4.3,2.9-4.2c1.7,0.1,2.8,2.1,2.8,4.5
				C106,546.7,104.4,549,103,548.9z"/>
			<path class="st3" d="M100.7,462.6c0-2.7,0.8-4.3,2.3-4.4c1.5-0.1,2.8,1.9,2.8,4.8c0,2.4-0.9,3.9-2.4,4
				C101.7,467,100.7,465.4,100.7,462.6z"/>
			<path class="st3" d="M103.2,480.6c-1.5,0-2.5-1.6-2.6-4.1s1.2-4.8,2.6-4.8c1.4,0.1,2.6,2.3,2.6,4.6
				C105.9,478.8,104.9,480.6,103.2,480.6z"/>
			<path class="st3" d="M100.6,530.4c0-2.3,1.3-4.1,2.8-4.1c1.5,0.1,2.5,1.8,2.4,4.3c0,2.3-1.2,4.3-2.5,4.4
				C101.8,535,100.6,532.9,100.6,530.4z"/>
			<path class="st3" d="M103.4,485.5c1.4,0.1,2.5,2.2,2.4,4.7c-0.1,2.6-1.2,4.1-2.8,4c-1.6-0.1-2.4-1.9-2.3-4.7
				C100.8,487.2,102.1,485.4,103.4,485.5z"/>
			<path class="st3" d="M105.8,503.4c0,2.3-1.4,4.4-2.9,4.3c-1.5-0.1-2.3-1.7-2.3-4.1c0-2.4,1-4.5,2.3-4.5
				C104.5,499.1,105.9,501.1,105.8,503.4z"/>
		</g>
		<g>
			<path class="st3" d="M103.3,687.5c-1.7-0.1-2.9-1.9-2.9-4.4c0.1-2.7,1.1-4.6,2.5-4.6c1.9,0,3.2,2,3.2,4.6
				C106,685.3,104.6,687.5,103.3,687.5z"/>
			<path class="st3" d="M103,714.7c-1.5-0.1-2.7-2.2-2.7-4.7c0-2.5,1.2-4.3,2.9-4.2c1.7,0.1,2.8,2.1,2.8,4.5
				C106,712.5,104.4,714.7,103,714.7z"/>
			<path class="st3" d="M100.7,628.4c0-2.7,0.8-4.3,2.3-4.4c1.5-0.1,2.8,1.9,2.8,4.8c0,2.4-0.9,3.9-2.4,4
				C101.7,632.8,100.7,631.2,100.7,628.4z"/>
			<path class="st3" d="M103.2,646.4c-1.5,0-2.5-1.6-2.6-4.1s1.2-4.8,2.6-4.8c1.4,0.1,2.6,2.3,2.6,4.6
				C105.9,644.6,104.9,646.3,103.2,646.4z"/>
			<path class="st3" d="M100.6,696.2c0-2.3,1.3-4.1,2.8-4.1c1.5,0.1,2.5,1.8,2.4,4.3c0,2.3-1.2,4.3-2.5,4.4
				C101.8,700.8,100.6,698.7,100.6,696.2z"/>
			<path class="st3" d="M103.4,651.3c1.4,0.1,2.5,2.2,2.4,4.7c-0.1,2.6-1.2,4.1-2.8,4c-1.6-0.1-2.4-1.9-2.3-4.7
				C100.8,653,102.1,651.2,103.4,651.3z"/>
			<path class="st3" d="M105.8,669.2c0,2.3-1.4,4.4-2.9,4.3c-1.5-0.1-2.3-1.7-2.3-4.1c0-2.4,1-4.5,2.3-4.5
				C104.5,664.9,105.9,666.9,105.8,669.2z"/>
		</g>
	</g>
	<g>
		<path class="st0" d="M1192.4,217.2c14.4-0.3,26.1,8.2,20.4,18c-1.3,1.9-3,3.4-5,4.6l-27.1,16.9c-1.1,0.7-2.2,1.4-3.4,2.1
			c-1.2,0.7-2.7,1-4.1,0.6c-2.7-0.6-3.5-2.2-1.6-3.7c1.3-1,2.6-1.9,4-2.8c8.9-5.6,17.9-11.2,26.9-16.7c2.3-1.4,3.8-3.1,4.1-5.2
			c0.3-3.2-1.5-5.7-5.6-7.5c-4.4-1.9-9.4-2.1-14-0.5c-1.9,0.7-3.7,1.5-5.4,2.6c-10.2,6.3-19.9,12.9-30.4,19c-0.8,0.5-1.6,1-2.4,1.7
			c-2.5,2.1-2.2,4.8,0.6,6.4c3.5,1.8,7.6,1.8,11-0.2c4.1-2.6,8.2-5.1,12.3-7.7c6.5-4.1,13-8.1,19.4-12.2c0.4-0.2,0.8-0.5,1.2-0.8
			c0.5-0.5,0.4-0.9-0.2-1.3c-0.6-0.4-1.4-0.5-2.1-0.1c-0.6,0.3-1.2,0.6-1.8,0.9c-8.8,5.8-18.5,11.1-27.4,16.9
			c-0.6,0.4-1.2,0.7-1.8,0.9c-1.3,0.5-2.8,0.5-4.1-0.2c-1.5-0.9-1.8-1.8-0.9-2.8c0.6-0.6,1.3-1.1,2.1-1.5c9.1-5.7,18.2-11.3,27.3-17
			c3.8-2.5,8.6-3,12.8-1.3c5.2,2.2,5.7,6.4,1.1,9.3c-4.3,2.7-8.7,5.4-13,8.1c-6.1,3.8-12.2,7.6-18.2,11.4c-2.3,1.5-4.8,2.6-7.5,3.2
			c-5.3,1.2-12.2,0.1-16-2.5c-5.8-4.2-5.6-9.5,1.1-13.8c3-2,6.3-3.7,9.4-5.6c7.5-4.6,14.9-9.2,22.3-13.9c2.1-1.3,4.2-2.5,6.5-3.5
			C1185.8,217.6,1189.1,217,1192.4,217.2z"/>
		<path class="st1" d="M1210.6,754c0,0.3,0,0.6,0,0.9c-0.1,1.3-0.3,1.5-2.3,1.7c-1.1,0.1-2.2,0.1-3.2,0.1c-1.8,0-3,0.5-3.6,1.6
			c-0.6,1-1.4,2.3-2.2,3.5c-0.6,0.9-0.4,1.6,0.8,2.3c1,0.6,1.9,1.3,2.8,1.9c0.9,0.7,0.7,1.1-0.1,1.7c-1.4,0.9-2.8,1.7-4.3,2.6
			c-0.6,0.3-1.3,0.3-1.8,0c-0.9-0.5-1.8-1-2.6-1.5c-1.5-1-3.4-1.2-5.1-0.7c-1.4,0.3-2.8,0.7-4.1,1c-2.1,0.5-3.2,1.5-3.3,3
			c-0.2,2.9-1,3.3-5.7,3.1c-0.5,0-1-0.1-1.5-0.1c-1.9-0.3-2.7-0.7-2.4-1.9c0.6-2.7-1.6-4-5.4-4.6c-0.6-0.1-1.1-0.3-1.6-0.4
			c-1.8-0.7-3.7-0.4-5.3,0.7c-0.7,0.5-1.5,1-2.3,1.4c-0.8,0.5-1.8,0.5-2.6,0l-3.8-2.3c-0.9-0.5-0.8-1.1-0.1-1.7
			c0.9-0.7,1.9-1.4,2.9-2.1c1.2-0.8,1.4-1.6,0.7-2.5s-1.5-2-2.1-3.1s-2-1.6-3.8-1.7c-1,0-2,0-3-0.1c-2-0.1-2.5-0.5-2.5-1.8
			c0-0.7,0-1.4,0-2c0-1.3,1.1-2,3-2c0.7,0,1.4,0.1,2.1,0.1c1.9,0,3.2-0.4,4-1.5c0.8-1.1,1.6-2.3,2.4-3.4c0.7-0.9,0.4-1.7-0.7-2.4
			c-0.8-0.5-1.7-1.1-2.4-1.6c-1.4-1-1.4-1.5,0-2.4c1-0.7,2.2-1.3,3.3-1.9c1-0.6,2.2-0.6,3.2,0c0.9,0.6,1.8,1.1,2.8,1.7
			c1,0.6,2.2,0.7,3.3,0.4c1.7-0.4,3.5-0.9,5.2-1.2c1.9-0.4,2.8-1.3,2.8-2.5c0-0.7,0-1.4,0-2c0-0.9,0.8-1.4,2.2-1.4
			c1.7,0,3.3,0,5,0.1c1.4,0,2.1,0.5,2.2,1.4c0,0.7,0.1,1.4,0.1,2c0,1.1,0.9,1.9,2.5,2.3c1.9,0.5,3.9,0.9,5.8,1.4
			c1.2,0.3,2.5,0.2,3.5-0.5c0.9-0.6,1.9-1.1,2.8-1.7c0.9-0.6,2-0.6,2.8,0c1.1,0.7,2.3,1.3,3.4,2.1c1.1,0.7,1.2,1.2,0,2.1
			c-0.8,0.6-1.6,1.1-2.4,1.6c-1.1,0.8-1.4,1.6-0.7,2.6c0.7,1,1.5,2.1,2.2,3.2c0.7,1.1,2.1,1.7,4.1,1.6
			C1210.2,750.7,1210.5,751.1,1210.6,754z M1161.6,753.7c-0.1,5.5,6.6,9.7,15.2,9.8c6.3,0.1,15.4-3.4,15.5-9.5c0-5.3-7-9.8-15.3-9.8
			C1168.3,744.2,1161.6,748.3,1161.6,753.7L1161.6,753.7z"/>
		<g>
			<path class="st0" d="M1160.9,580.2c-3.3,0-6.5-0.1-9.8,0c-5.9,0.1-9.3,2.4-9.3,6.1c0,3.8,3.4,6.1,9.2,6.3c2.2,0.1,4.3,0,6.5,0
				c0.9-0.1,1.8,0.2,2.4,0.8c1.7,2.2,3.8,4,6.2,5.4c0.4,0.3,1,0.6,0.7,1c-0.3,0.4-1,0.4-1.5,0.4c-6.2-0.2-12.4,0.2-18.6-0.3
				c-7.4-0.5-17.3-6.9-16.9-11.9c0.2-2.1,0-4.2,1-6.2c2.8-5.4,10.3-9.1,19.4-9.2c6.8-0.1,13.6-0.1,20.4-0.1c10,0,17.5,4.1,20.5,10.2
				c0.8,1.8,0.4,3.7,0.3,5.5c0,0.8-0.8,1.2-2,1.4c-2.4,0.3-4.9,0.3-7.3,0c-1.6-0.2-2.3-0.9-2.5-1.8c-0.1-0.6-0.1-1.2-0.1-1.9
				c0-3.5-3.5-5.8-9.2-5.9C1167.2,580.1,1164,580.2,1160.9,580.2L1160.9,580.2z"/>
			<path class="st0" d="M1197,572.7c3.3,0.1,6.7,0,10,0.3c3,0.2,5.9,1,8.5,2.4l0.2,0.1c7.7,3.9,9.3,9,7.5,14.7
				c-1.5,4.7-8.8,8.9-16.5,9.7c-3.1,0.3-6.1,0.2-9.2,0.2c-4.5,0-9.1,0-13.6,0c-4.1,0.1-8.2-0.7-12-2.2c-7.4-3-9.9-7.5-9.3-12.8
				c0.2-1.8,0.8-2.1,3.7-2.1c1.5,0,3,0,4.4,0.1c2.6,0.1,3,0.3,3.3,2c0.1,0.6,0.2,1.2,0.2,1.8c0.4,3.4,3.8,5.6,9.3,5.7
				c6.3,0.1,12.6,0,19,0c5.9,0,9.6-2.8,9.7-6.1c0.1-3.8-3.8-6.4-9.8-6.5c-2,0-4,0-5.9,0c-1.1,0.2-2.1-0.2-2.9-1
				c-1.5-2-3.4-3.7-5.7-4.9c-0.4-0.2-0.9-0.6-0.7-1s1-0.6,1.7-0.6C1191.6,572.6,1194.3,572.7,1197,572.7z"/>
		</g>
		<g>
			<path class="st2" d="M1197.3,400.9c-0.2,0.5-0.5,1-0.9,1.3l-28.1,30.7c-0.3,0.3-0.6,0.7-0.9,1c-0.4,0.5-1.1,0.7-1.7,0.4
				c-2.2-0.7-4.4-1.4-6.6-2.1c-1.4-0.4-1.3-1.2-0.7-1.9c0.8-1,1.7-1.9,2.6-2.9c5.5-6,11-12,16.5-18c2.6-2.9,5.2-5.8,8.2-8.6
				c0.7-0.7,1.3-1.5,1.9-2.3c0.7-1,1.2-1.1,2.8-0.7c1.9,0.5,3.7,1.1,5.5,1.8C1196.7,399.9,1197.4,400.3,1197.3,400.9z"/>
			<path class="st2" d="M1142.7,430c-0.5-0.1-1-0.3-1.4-0.6c-2.1-1.2-4.2-2.4-6.1-3.8c-4-2.8-8.3-5.3-12.5-7.9
				c-2.1-1.3-2.1-1.6-0.1-2.9c5.9-3.8,11.8-7.6,17.8-11.4c1.8-1.2,2.6-1.2,4.5-0.1c1.1,0.7,2.2,1.4,3.3,2.1c1.6,1.2,1.7,1.5-0.1,2.7
				c-2.6,1.8-5.4,3.4-8.1,5.1c-0.9,0.6-1.9,1.1-2.7,1.7c-1.3,1-1.3,1.4,0.2,2.4c3.4,2.2,6.7,4.3,10.1,6.5c2.6,1.6,2.6,1.6-0.1,3.3
				c-1.2,0.7-2.3,1.5-3.5,2.3C1143.5,429.8,1143.1,430,1142.7,430z"/>
			<path class="st2" d="M1211.1,430.2c-0.4-0.2-0.8-0.4-1.1-0.6c-1.4-0.9-2.8-1.8-4.1-2.6c-1.6-1.1-1.6-1.6,0.1-2.7
				c3-1.9,6.1-3.8,9.2-5.8l1.1-0.6c2.1-1.3,2.1-1.5,0.1-2.9c-3-2-6-3.9-9-5.9c-0.5-0.3-1-0.6-1.5-0.9c-1.1-0.9-1.2-1.4,0-2.3
				c1.2-0.9,2.4-1.7,3.6-2.4c1.5-0.9,2.2-0.9,3.8,0c1.2,0.7,2.5,1.4,3.6,2.2c4.9,3.2,9.7,6.3,14.6,9.5c1.5,1,1.6,1.3,0,2.3
				c-2.2,1.5-4.6,2.9-6.8,4.4l-11.7,7.6C1212.4,429.8,1211.8,430.1,1211.1,430.2z"/>
		</g>
		<g>
			<path class="st1" d="M1170,42.9h27.2c8.3,0,14.6,2.1,18.1,6.9c5.1,7-0.9,16.6-16,17.3c-0.4,0-0.8,0-1.2,0c-2.8,0.1-3,0.2-3.5,1.8
				c-1,3.3-3.8,5.9-8.1,7.9c-2.8,1.3-5.9,2-9,2.1c-7.8,0-15.6,0.3-23.4-0.1c-10.5-0.5-17.4-5.7-17.5-11.9
				c-0.1-6.4,0.2-12.7-0.1-19.1c0-1.1,0.2-2.1,0.4-3.1c0.1-1,1-1.6,2.7-1.6c1-0.1,2-0.1,2.9-0.1L1170,42.9L1170,42.9z M1166,47.8
				L1166,47.8h-18.7c-2.7,0-2.9,0.1-2.9,1.8c0,0.9,0,1.8,0,2.8c0,4.8,0,9.6,0.1,14.5c0.1,4.2,4.8,7.1,11.4,7.1c6.7,0,13.4,0,20.1,0
				c2.7,0.1,5.3-0.7,7.6-2.1c2.5-1.5,3.5-3.3,3.5-5.5c-0.1-5.6,0-11.1-0.1-16.7c0-1.8-0.2-1.9-3-1.9L1166,47.8z M1194.8,55.1
				L1194.8,55.1c-0.1,1.8-0.1,3.6-0.1,5.4c0,1.5,0.4,1.7,2.8,1.6c1.8,0,3.7-0.2,5.4-0.8c4.6-1.6,7-4.7,5.9-7.8
				c-1.1-3.1-5.6-5.5-10.5-5.6c-3.2,0-3.5,0.1-3.6,2.1C1194.8,51.8,1194.8,53.4,1194.8,55.1z"/>
			<path class="st1" d="M1168.8,39.1c0.1-0.9,0.6-1.8,1.3-2.4c1.1-1.2,1.1-2.2-0.3-3.4c-2.8-2.5-2.5-4.1,0.8-6.3
				c0.8-0.5,1.6-1.1,2.5-1.6c0.4-0.3,1.1-0.3,1.4,0.2c0,0.1,0.1,0.1,0.1,0.2c0.2,0.4,0.1,0.9-0.2,1.3c-0.4,0.6-0.9,1.2-1.5,1.8
				c-0.9,0.8-0.9,1.6,0.2,2.3c0.5,0.4,1,0.8,1.4,1.2c1.6,1.6,1.6,3.1-0.2,4.6c-1.1,0.9-2.3,1.7-3.5,2.5c-0.3,0.3-0.8,0.4-1.3,0.3
				C1168.8,39.8,1168.9,39.3,1168.8,39.1z"/>
			<path class="st1" d="M1163,24.9c1,1.5,0.3,2.6-0.6,3.5c-1.1,1.2-1.1,2.1,0.3,3.2c0.8,0.6,1.4,1.4,1.8,2.3c0.4,1.1,0.1,2.4-0.9,3
				c-1,0.8-2.2,1.6-3.3,2.3c-0.4,0.3-0.8,0.4-1.3,0.3c-0.5,0-0.8-0.4-0.8-0.9c0.1-0.8,0.5-1.4,1.1-1.9c1.5-1.3,1.2-2.3-0.4-3.5
				c-2.6-1.9-2.4-4.1,0.4-5.9C1160.3,26.5,1161.6,25.8,1163,24.9z"/>
		</g>
		<g>
			<path class="st3" d="M1176.9,166.3c-1.7-0.1-2.9-1.9-2.9-4.4c0.1-2.7,1.1-4.6,2.5-4.6c1.9,0,3.2,2,3.2,4.6
				C1179.6,164.1,1178.2,166.3,1176.9,166.3z"/>
			<path class="st3" d="M1176.6,193.4c-1.5-0.1-2.7-2.2-2.7-4.7c0-2.5,1.2-4.3,2.9-4.2c1.7,0.1,2.8,2.1,2.8,4.5
				C1179.5,191.2,1178,193.5,1176.6,193.4z"/>
			<path class="st3" d="M1174.3,107.1c0-2.7,0.8-4.3,2.3-4.4c1.5-0.1,2.8,1.9,2.8,4.8c0,2.4-0.9,3.9-2.4,4
				C1175.3,111.5,1174.3,110,1174.3,107.1z"/>
			<path class="st3" d="M1176.8,125.1c-1.5,0-2.5-1.6-2.6-4.1s1.2-4.8,2.6-4.8s2.6,2.3,2.6,4.6
				C1179.5,123.4,1178.4,125.1,1176.8,125.1z"/>
			<path class="st3" d="M1174.2,175c0-2.3,1.3-4.1,2.8-4.1s2.5,1.8,2.4,4.3c0,2.3-1.2,4.3-2.5,4.4
				C1175.4,179.6,1174.2,177.5,1174.2,175z"/>
			<path class="st3" d="M1177,130c1.4,0.1,2.5,2.2,2.4,4.7c-0.1,2.6-1.2,4.1-2.8,4s-2.4-1.9-2.3-4.7
				C1174.4,131.8,1175.7,129.9,1177,130z"/>
			<path class="st3" d="M1179.4,148c0,2.3-1.4,4.4-2.9,4.3s-2.3-1.7-2.3-4.1c0-2.4,1-4.5,2.3-4.5
				C1178.1,143.6,1179.5,145.6,1179.4,148z"/>
		</g>
		<g>
			<path class="st3" d="M1176.9,346.7c-1.7-0.1-2.9-1.9-2.9-4.4c0.1-2.7,1.1-4.6,2.5-4.6c1.9,0,3.2,2,3.2,4.6
				C1179.6,344.5,1178.2,346.8,1176.9,346.7z"/>
			<path class="st3" d="M1176.6,373.9c-1.5-0.1-2.7-2.2-2.7-4.7c0-2.5,1.2-4.3,2.9-4.2s2.8,2.1,2.8,4.5
				C1179.5,371.7,1178,373.9,1176.6,373.9z"/>
			<path class="st3" d="M1174.3,287.6c0-2.7,0.8-4.3,2.3-4.4c1.5-0.1,2.8,1.9,2.8,4.8c0,2.4-0.9,3.9-2.4,4
				C1175.3,292,1174.3,290.4,1174.3,287.6z"/>
			<path class="st3" d="M1176.8,305.6c-1.5,0-2.5-1.6-2.6-4.1s1.2-4.8,2.6-4.8s2.6,2.3,2.6,4.6
				C1179.5,303.8,1178.4,305.6,1176.8,305.6z"/>
			<path class="st3" d="M1174.2,355.4c0-2.3,1.3-4.1,2.8-4.1s2.5,1.8,2.4,4.3c0,2.3-1.2,4.3-2.5,4.4
				C1175.4,360,1174.2,357.9,1174.2,355.4z"/>
			<path class="st3" d="M1177,310.5c1.4,0.1,2.5,2.2,2.4,4.7c-0.1,2.6-1.2,4.1-2.8,4c-1.6-0.1-2.4-1.9-2.3-4.7
				C1174.4,312.2,1175.7,310.4,1177,310.5z"/>
			<path class="st3" d="M1179.4,328.4c0,2.3-1.4,4.4-2.9,4.3s-2.3-1.7-2.3-4.1c0-2.4,1-4.5,2.3-4.5
				C1178.1,324.1,1179.5,326.1,1179.4,328.4z"/>
		</g>
		<g>
			<path class="st3" d="M1176.9,521.7c-1.7-0.1-2.9-1.9-2.9-4.4c0.1-2.7,1.1-4.6,2.5-4.6c1.9,0,3.2,2,3.2,4.6
				C1179.6,519.5,1178.2,521.8,1176.9,521.7z"/>
			<path class="st3" d="M1176.6,548.9c-1.5-0.1-2.7-2.2-2.7-4.7c0-2.5,1.2-4.3,2.9-4.2c1.7,0.1,2.8,2.1,2.8,4.5
				C1179.5,546.7,1178,549,1176.6,548.9z"/>
			<path class="st3" d="M1174.3,462.6c0-2.7,0.8-4.3,2.3-4.4c1.5-0.1,2.8,1.9,2.8,4.8c0,2.4-0.9,3.9-2.4,4
				C1175.3,467,1174.3,465.4,1174.3,462.6z"/>
			<path class="st3" d="M1176.8,480.6c-1.5,0-2.5-1.6-2.6-4.1s1.2-4.8,2.6-4.8s2.6,2.3,2.6,4.6
				C1179.5,478.8,1178.4,480.6,1176.8,480.6z"/>
			<path class="st3" d="M1174.2,530.4c0-2.3,1.3-4.1,2.8-4.1s2.5,1.8,2.4,4.3c0,2.3-1.2,4.3-2.5,4.4
				C1175.4,535,1174.2,532.9,1174.2,530.4z"/>
			<path class="st3" d="M1177,485.5c1.4,0.1,2.5,2.2,2.4,4.7c-0.1,2.6-1.2,4.1-2.8,4c-1.6-0.1-2.4-1.9-2.3-4.7
				C1174.4,487.2,1175.7,485.4,1177,485.5z"/>
			<path class="st3" d="M1179.4,503.4c0,2.3-1.4,4.4-2.9,4.3s-2.3-1.7-2.3-4.1c0-2.4,1-4.5,2.3-4.5
				C1178.1,499.1,1179.5,501.1,1179.4,503.4z"/>
		</g>
		<g>
			<path class="st3" d="M1176.9,687.5c-1.7-0.1-2.9-1.9-2.9-4.4c0.1-2.7,1.1-4.6,2.5-4.6c1.9,0,3.2,2,3.2,4.6
				C1179.6,685.3,1178.2,687.5,1176.9,687.5z"/>
			<path class="st3" d="M1176.6,714.7c-1.5-0.1-2.7-2.2-2.7-4.7c0-2.5,1.2-4.3,2.9-4.2s2.8,2.1,2.8,4.5
				C1179.5,712.5,1178,714.7,1176.6,714.7z"/>
			<path class="st3" d="M1174.3,628.4c0-2.7,0.8-4.3,2.3-4.4c1.5-0.1,2.8,1.9,2.8,4.8c0,2.4-0.9,3.9-2.4,4
				C1175.3,632.8,1174.3,631.2,1174.3,628.4z"/>
			<path class="st3" d="M1176.8,646.4c-1.5,0-2.5-1.6-2.6-4.1s1.2-4.8,2.6-4.8s2.6,2.3,2.6,4.6
				C1179.5,644.6,1178.4,646.3,1176.8,646.4z"/>
			<path class="st3" d="M1174.2,696.2c0-2.3,1.3-4.1,2.8-4.1c1.5,0.1,2.5,1.8,2.4,4.3c0,2.3-1.2,4.3-2.5,4.4
				C1175.4,700.8,1174.2,698.7,1174.2,696.2z"/>
			<path class="st3" d="M1177,651.3c1.4,0.1,2.5,2.2,2.4,4.7c-0.1,2.6-1.2,4.1-2.8,4s-2.4-1.9-2.3-4.7
				C1174.4,653,1175.7,651.2,1177,651.3z"/>
			<path class="st3" d="M1179.4,669.2c0,2.3-1.4,4.4-2.9,4.3c-1.5-0.1-2.3-1.7-2.3-4.1c0-2.4,1-4.5,2.3-4.5
				C1178.1,664.9,1179.5,666.9,1179.4,669.2z"/>
		</g>
	</g>
</g>
</svg>
