<svg xmlns="http://www.w3.org/2000/svg" viewBox="0 0 283.46 283.46"><defs><style>.cls-1{fill:#1d1d1b;}.cls-2{fill:#fff;}</style></defs><g id="Capa_2" data-name="Capa 2"><g id="Capa_1-2" data-name="Capa 1"><circle class="cls-1" cx="141.73" cy="141.73" r="141.73"/><g id="_8e5d8b3c-8869-4e3d-927e-5b61e5bdb858" data-name="8e5d8b3c-8869-4e3d-927e-5b61e5bdb858"><path class="cls-2" d="M67,206.15c1.65,0,2.38-.87,2.38-2.05v-.59c0-1.17-.73-2-2.38-2s-2.37.88-2.37,2v.59C64.59,205.28,65.3,206.15,67,206.15Zm-2,16.15H69V207.7H64.93Zm15.82,0,4.75-14.6H81.64l-1.74,5.9-1.35,5.28h-.22L77,213.6l-1.79-5.9h-4l4.74,14.6Zm19.63,0v-3.2H99v-6.39c0-3.46-2.09-5.35-6.19-5.35-3,0-4.69,1-5.83,2.78l2.42,2.17a3.56,3.56,0,0,1,3.12-1.71c1.71,0,2.4.87,2.4,2.3v.92H92.65c-3.84,0-6.2,1.47-6.2,4.57,0,2.52,1.59,4.25,4.49,4.25,2.21,0,3.8-1,4.24-2.9h.17a2.75,2.75,0,0,0,2.76,2.56Zm-7.92-2.52c-1.22,0-1.91-.52-1.91-1.57v-.42c0-1,.82-1.63,2.4-1.63h2v1.71C94.94,219.22,93.8,219.78,92.46,219.78Zm14.72,2.52v-9.46c0-1.45,1.3-2.14,2.62-2.14,1.5,0,2,.91,2,2.78v8.82h4.08v-9.16c0-3.65-1.58-5.78-4.53-5.78a3.94,3.94,0,0,0-4,2.82h-.18V207.7H103.1v14.6Zm26.46,0v-3.36h-4.08V202.89h-6.34L118.61,209l2.64,2.09,3.92-5.19h.26v13h-5.19v3.36Zm15.43,0v-3.2h-1.36v-6.39c0-3.46-2.09-5.35-6.18-5.35-3,0-4.69,1-5.84,2.78l2.43,2.17a3.55,3.55,0,0,1,3.11-1.71c1.71,0,2.4.87,2.4,2.3v.92h-2.28c-3.84,0-6.21,1.47-6.21,4.57,0,2.52,1.6,4.25,4.49,4.25,2.21,0,3.81-1,4.24-2.9h.18a2.75,2.75,0,0,0,2.76,2.56Zm-7.92-2.52c-1.22,0-1.91-.52-1.91-1.57v-.42c0-1,.83-1.63,2.4-1.63h2v1.71C143.63,219.22,142.49,219.78,141.15,219.78Zm14.72,2.52v-8.54c0-1.69,1.16-2.23,3.55-2.23h1V207.7h-.71a3.64,3.64,0,0,0-3.7,3.18h-.14V207.7h-4.08v14.6Zm11.15,0v-8.54c0-1.69,1.17-2.23,3.53-2.23h1V207.7h-.71a3.65,3.65,0,0,0-3.71,3.18H167V207.7H163v14.6Zm9.11-16.15c1.65,0,2.36-.87,2.36-2.05v-.59c0-1.17-.71-2-2.36-2s-2.37.88-2.37,2v.59C173.76,205.28,174.47,206.15,176.13,206.15Zm-2,16.15h4.1V207.7h-4.1Zm13.77.34c4.26,0,6.78-3,6.78-7.65s-2.52-7.63-6.78-7.63-6.77,2.92-6.77,7.63S183.6,222.64,187.85,222.64Zm0-3.26c-1.59,0-2.54-1-2.54-2.9v-3c0-1.85.95-2.9,2.54-2.9s2.55,1,2.55,2.9v3C190.4,218.33,189.45,219.38,187.85,219.38Zm15.59,2.92v-3.2h-1.81V201.72h-4.1v16.57c0,2.6,1.28,4,4.06,4Zm15.43,0v-3.2h-1.36v-6.39c0-3.46-2.09-5.35-6.19-5.35-3,0-4.69,1-5.83,2.78l2.42,2.17A3.58,3.58,0,0,1,211,210.6c1.71,0,2.4.87,2.4,2.3v.92h-2.28c-3.85,0-6.21,1.47-6.21,4.57,0,2.52,1.6,4.25,4.49,4.25,2.21,0,3.81-1,4.24-2.9h.18a2.75,2.75,0,0,0,2.75,2.56ZM211,219.78c-1.22,0-1.91-.52-1.91-1.57v-.42c0-1,.83-1.63,2.4-1.63h2v1.71C213.43,219.22,212.29,219.78,211,219.78Z"/></g><g id="_12d59ae7-c1f4-4d23-ae0f-36783bfbbd3e" data-name="12d59ae7-c1f4-4d23-ae0f-36783bfbbd3e"><path class="cls-2" d="M141.73,159l36-62.23h-72Zm-40.85-34.45-36,62.22h72Zm81.7,0-36,62.22h72Z"/></g></g></g></svg>