<svg data-v-423bf9ae="" xmlns="http://www.w3.org/2000/svg" viewBox="0 0 440.6565895088139 163" class="iconAbove"><!----><!----><!----><g data-v-423bf9ae="" id="8e5d8b3c-8869-4e3d-927e-5b61e5bdb858" fill="white" transform="matrix(5.6285176277160645,0,0,5.6285176277160645,-4.5028204917907715,81.27391815185547)"><path d="M2.00 6.22C2.84 6.22 3.21 5.78 3.21 5.19L3.21 4.89C3.21 4.30 2.84 3.86 2.00 3.86C1.16 3.86 0.80 4.30 0.80 4.89L0.80 5.19C0.80 5.78 1.16 6.22 2.00 6.22ZM0.97 14.35L3.04 14.35L3.04 7.00L0.97 7.00ZM9.00 14.35L11.41 7.00L9.45 7.00L8.57 9.97L7.88 12.63L7.77 12.63L7.08 9.97L6.17 7.00L4.13 7.00L6.54 14.35ZM18.96 14.35L18.96 12.74L18.27 12.74L18.27 9.52C18.27 7.78 17.21 6.83 15.13 6.83C13.59 6.83 12.75 7.36 12.17 8.23L13.40 9.32C13.72 8.88 14.15 8.46 14.98 8.46C15.85 8.46 16.20 8.90 16.20 9.62L16.20 10.08L15.04 10.08C13.09 10.08 11.89 10.82 11.89 12.38C11.89 13.65 12.70 14.52 14.17 14.52C15.29 14.52 16.10 14.01 16.32 13.06L16.41 13.06C16.53 13.85 17.07 14.35 17.81 14.35ZM14.94 13.08C14.32 13.08 13.97 12.82 13.97 12.29L13.97 12.08C13.97 11.55 14.39 11.26 15.19 11.26L16.20 11.26L16.20 12.12C16.20 12.80 15.62 13.08 14.94 13.08ZM22.41 14.35L22.41 9.59C22.41 8.86 23.07 8.51 23.74 8.51C24.50 8.51 24.77 8.97 24.77 9.91L24.77 14.35L26.84 14.35L26.84 9.74C26.84 7.90 26.04 6.83 24.54 6.83C23.38 6.83 22.76 7.48 22.50 8.25L22.41 8.25L22.41 7.00L20.34 7.00L20.34 14.35ZM35.84 14.35L35.84 12.66L33.77 12.66L33.77 4.58L30.55 4.58L28.21 7.66L29.55 8.71L31.54 6.10L31.67 6.10L31.67 12.66L29.04 12.66L29.04 14.35ZM43.67 14.35L43.67 12.74L42.98 12.74L42.98 9.52C42.98 7.78 41.92 6.83 39.84 6.83C38.30 6.83 37.46 7.36 36.88 8.23L38.11 9.32C38.43 8.88 38.86 8.46 39.69 8.46C40.56 8.46 40.91 8.90 40.91 9.62L40.91 10.08L39.75 10.08C37.80 10.08 36.60 10.82 36.60 12.38C36.60 13.65 37.41 14.52 38.88 14.52C40.00 14.52 40.81 14.01 41.03 13.06L41.12 13.06C41.24 13.85 41.78 14.35 42.52 14.35ZM39.65 13.08C39.03 13.08 38.68 12.82 38.68 12.29L38.68 12.08C38.68 11.55 39.10 11.26 39.90 11.26L40.91 11.26L40.91 12.12C40.91 12.80 40.33 13.08 39.65 13.08ZM47.12 14.35L47.12 10.05C47.12 9.20 47.71 8.93 48.92 8.93L49.43 8.93L49.43 7.00L49.07 7.00C47.92 7.00 47.36 7.78 47.19 8.60L47.12 8.60L47.12 7.00L45.05 7.00L45.05 14.35ZM52.78 14.35L52.78 10.05C52.78 9.20 53.37 8.93 54.57 8.93L55.09 8.93L55.09 7.00L54.73 7.00C53.58 7.00 53.02 7.78 52.85 8.60L52.78 8.60L52.78 7.00L50.71 7.00L50.71 14.35ZM57.40 6.22C58.24 6.22 58.60 5.78 58.60 5.19L58.60 4.89C58.60 4.30 58.24 3.86 57.40 3.86C56.56 3.86 56.20 4.30 56.20 4.89L56.20 5.19C56.20 5.78 56.56 6.22 57.40 6.22ZM56.36 14.35L58.44 14.35L58.44 7.00L56.36 7.00ZM63.35 14.52C65.51 14.52 66.79 13.03 66.79 10.67C66.79 8.30 65.51 6.83 63.35 6.83C61.19 6.83 59.91 8.30 59.91 10.67C59.91 13.03 61.19 14.52 63.35 14.52ZM63.35 12.88C62.54 12.88 62.06 12.35 62.06 11.42L62.06 9.93C62.06 9.00 62.54 8.47 63.35 8.47C64.16 8.47 64.64 9.00 64.64 9.93L64.64 11.42C64.64 12.35 64.16 12.88 63.35 12.88ZM71.26 14.35L71.26 12.74L70.34 12.74L70.34 3.99L68.26 3.99L68.26 12.33C68.26 13.64 68.91 14.35 70.32 14.35ZM79.09 14.35L79.09 12.74L78.40 12.74L78.40 9.52C78.40 7.78 77.34 6.83 75.26 6.83C73.72 6.83 72.88 7.36 72.30 8.23L73.53 9.32C73.85 8.88 74.28 8.46 75.11 8.46C75.98 8.46 76.33 8.90 76.33 9.62L76.33 10.08L75.17 10.08C73.22 10.08 72.02 10.82 72.02 12.38C72.02 13.65 72.83 14.52 74.30 14.52C75.42 14.52 76.23 14.01 76.45 13.06L76.54 13.06C76.66 13.85 77.20 14.35 77.94 14.35ZM75.07 13.08C74.45 13.08 74.10 12.82 74.10 12.29L74.10 12.08C74.10 11.55 74.52 11.26 75.32 11.26L76.33 11.26L76.33 12.12C76.33 12.80 75.75 13.08 75.07 13.08Z"></path></g><!----><g data-v-423bf9ae="" id="12d59ae7-c1f4-4d23-ae0f-36783bfbbd3e" transform="matrix(4.803586483001709,0,0,4.803586483001709,144.14260864257812,-31.225383758544922)" stroke="none" fill="white"><path d="M16 19.586l7.496-12.954H8.504zM7.496 12.414L0 25.368h14.992zM24.504 12.414l-7.496 12.954H32z"></path></g><!----></svg>